<svg width="145" height="150" viewBox="0 0 145 150" fill="none" xmlns="http://www.w3.org/2000/svg">
<g clip-path="url(#clip0_665_885)">
<path d="M136.781 139.774C136.781 145.422 106.261 150 68.611 150C30.961 150 0.44043 145.422 0.44043 139.774C0.44043 135.777 15.7392 132.313 38.0354 130.633C47.2296 129.938 57.6179 129.549 68.611 129.549C73.13 129.549 77.5457 129.615 81.8163 129.74C113.146 130.664 136.781 134.805 136.781 139.774Z" fill="#3F3D56"/>
<path opacity="0.1" d="M59.8152 141.864C74.2678 141.864 85.9839 140.436 85.9839 138.675C85.9839 136.914 74.2678 135.486 59.8152 135.486C45.3626 135.486 33.6465 136.914 33.6465 138.675C33.6465 140.436 45.3626 141.864 59.8152 141.864Z" fill="black"/>
<path d="M59.7051 140.984C73.3683 140.984 84.4444 129.169 84.4444 114.595C84.4444 100.021 73.3683 88.2065 59.7051 88.2065C46.042 88.2065 34.9658 100.021 34.9658 114.595C34.9658 129.169 46.042 140.984 59.7051 140.984Z" fill="#3F3D56"/>
<path d="M67.5115 130.208H52.1182V144.282H67.5115V130.208Z" fill="#F37D00"/>
<path d="M87.6325 133.617L86.7529 138.455L92.4705 139.335L96.2088 137.136L95.9889 133.617H87.6325Z" fill="#9FADFD"/>
<path d="M58.8254 42.7966C58.8254 42.7966 58.3856 47.8544 57.2861 48.0743C56.1866 48.2942 59.705 57.0904 59.705 57.0904H64.9828L69.161 55.9909L67.1818 51.153C67.1818 51.153 64.5429 47.6345 66.5221 44.7757C68.5012 41.917 58.8254 42.7966 58.8254 42.7966Z" fill="#A0616A"/>
<path opacity="0.1" d="M58.8254 42.7966C58.8254 42.7966 58.3856 47.8544 57.2861 48.0743C56.1866 48.2942 59.705 57.0904 59.705 57.0904H64.9828L69.161 55.9909L67.1818 51.153C67.1818 51.153 64.5429 47.6345 66.5221 44.7757C68.5012 41.917 58.8254 42.7966 58.8254 42.7966Z" fill="black"/>
<path d="M47.8299 81.4997C47.8299 81.4997 42.1123 92.495 46.7303 94.694C51.3483 96.8931 52.4479 96.6732 52.4479 97.3329C52.4479 97.9926 51.5682 97.7727 52.0081 98.8722C52.4479 99.9717 51.1284 104.37 52.4479 107.009C53.7673 109.648 53.3275 111.627 53.3275 111.627C53.3275 111.627 53.3275 111.847 53.7673 112.726C54.2071 113.606 54.427 114.266 54.2071 114.705C53.9872 115.145 52.6678 118.004 53.9872 118.664C55.3066 119.323 62.1237 119.763 62.7834 118.664C63.4431 117.564 62.1237 116.904 62.7834 116.245C63.4431 115.585 63.8829 115.365 63.4431 114.925C63.0033 114.485 62.5635 108.988 62.5635 108.988C62.5635 108.988 63.663 102.611 63.2232 101.731C62.7834 100.851 62.1237 99.9717 62.5635 99.312C63.0033 98.6523 63.4431 98.8722 63.663 97.9926C63.8829 97.113 64.3227 95.1338 64.3227 95.1338L66.7417 94.9139L72.4592 96.0134C72.4592 96.0134 78.8365 103.05 85.8734 105.249C85.8734 105.249 87.8526 107.229 88.5123 107.229C89.172 107.229 89.172 107.229 88.9521 107.668C88.7322 108.108 88.0725 108.108 88.5123 108.548C88.9521 108.988 89.6118 108.328 89.172 108.988C88.7322 109.648 88.2924 109.648 88.7322 110.087C89.172 110.527 88.5123 112.946 88.5123 113.166C88.5123 113.386 86.5331 134.057 87.1929 134.497C87.8526 134.937 97.0886 136.256 97.7483 134.497C98.408 132.738 97.3085 130.538 97.3085 130.538C97.3085 130.538 100.607 104.15 99.7274 102.391C98.8478 100.631 95.7691 92.7149 79.2763 87.6571C79.2763 87.6571 74.6583 86.7774 74.6583 86.1177C74.6583 85.458 74.2185 81.2798 73.3388 81.0599C72.4592 80.84 67.4014 80.6201 67.4014 80.6201L61.0242 82.5993L52.228 81.0599L47.8299 81.4997Z" fill="#2F2E41"/>
<path d="M55.5264 118.443L54.4269 122.402C54.4269 122.402 53.5472 128.779 54.6468 130.318C55.5104 131.527 57.0524 133.008 59.9123 133.268C60.7137 133.341 61.5163 133.139 62.1872 132.694C62.8582 132.25 63.3573 131.59 63.602 130.823C63.6348 130.731 63.6553 130.635 63.6629 130.538C63.6629 130.098 63.0032 124.821 63.0032 124.821L61.9036 119.323L61.6837 117.784L55.5264 118.443Z" fill="#2F2E41"/>
<path d="M87.6322 137.355C87.6322 137.355 86.5327 136.256 86.3127 137.355C86.0928 138.455 85.2132 143.073 86.7526 143.293C88.2919 143.513 103.026 145.712 104.565 144.832C106.104 143.953 108.963 142.633 107.204 141.973C105.444 141.314 100.387 139.335 100.387 139.335C100.387 139.335 97.5279 135.596 97.0881 135.376C96.6483 135.156 94.2293 135.596 93.1298 136.476C92.0303 137.355 87.6322 137.355 87.6322 137.355Z" fill="#2F2E41"/>
<path d="M64.1032 47.4144C67.8681 47.4144 70.9202 44.3623 70.9202 40.5973C70.9202 36.8324 67.8681 33.7803 64.1032 33.7803C60.3382 33.7803 57.2861 36.8324 57.2861 40.5973C57.2861 44.3623 60.3382 47.4144 64.1032 47.4144Z" fill="#A0616A"/>
<path d="M63.4436 55.9908L60.8047 53.1321L57.8796 47.4145C57.8796 47.4145 55.7469 46.7548 55.3071 47.8543C54.8673 48.9539 46.9507 52.4723 46.9507 52.4723C46.9507 52.4723 48.9298 70.9443 48.0502 72.7036C47.1706 74.4628 45.6313 81.4998 46.9507 82.1595C48.2701 82.8192 54.4275 82.1595 56.4066 83.0391C58.3857 83.9187 64.1033 83.9187 65.6426 82.8192C67.1819 81.7197 67.6217 80.84 69.1611 81.4998C70.4715 82.0614 73.5351 62.8604 74.4172 57.1385C74.4915 56.6579 74.4298 56.1661 74.239 55.7188C74.0483 55.2715 73.7361 54.8865 73.3379 54.6075C71.3647 53.2234 67.811 50.8384 67.1819 51.1529C66.3023 51.5927 63.4436 55.9908 63.4436 55.9908Z" fill="#9FADFD"/>
<path d="M72.8991 55.1113C73.4155 55.2404 73.88 55.5244 74.2302 55.9252C74.5805 56.326 74.7998 56.8244 74.8586 57.3534L76.6374 73.3634C76.6374 73.3634 72.2393 82.8193 70.0403 76.4421C67.8412 70.0648 72.8991 55.1113 72.8991 55.1113Z" fill="#9FADFD"/>
<path d="M72.4597 74.9024L77.2976 73.583C77.2976 73.583 78.1772 79.7403 79.0569 79.7403C79.9365 79.7403 75.9782 83.2588 73.9991 82.819C72.0199 82.3792 69.1611 80.8399 68.9412 79.7403C68.7213 78.6408 70.9204 74.0228 70.9204 74.0228L72.4597 74.9024Z" fill="#9FADFD"/>
<path d="M58.9571 43.5384C59.4207 42.5163 59.3402 41.324 59.7234 40.2692C59.9286 39.7043 60.2617 39.1946 60.6965 38.7797C61.1313 38.3649 61.6561 38.0562 62.23 37.8778C62.8038 37.6994 63.4111 37.656 64.0045 37.7512C64.5979 37.8463 65.1612 38.0773 65.6506 38.4262C66.1435 38.7777 66.6378 39.2716 67.2395 39.2044C67.8875 39.1322 68.4655 38.4093 69.0612 38.6742C69.7216 38.9679 69.5432 40.1513 70.2122 40.4246C70.5643 40.5685 70.9804 40.3469 71.1835 40.0253C71.3612 39.6873 71.458 39.3127 71.4663 38.931C71.5586 37.9931 71.642 37.0005 71.2353 36.1503C71.0642 35.8622 70.9151 35.5615 70.7892 35.251C70.7181 34.9609 70.6895 34.662 70.7045 34.3638C70.7007 33.2614 70.6203 32.1115 70.0655 31.1588C69.4498 30.1017 68.3118 29.4258 67.1246 29.1308C65.9374 28.8359 64.6936 28.8811 63.4746 28.9843C61.4596 29.1549 59.3582 29.5205 57.7706 30.7732C57.5548 30.9309 57.3691 31.126 57.2223 31.3493C57.083 31.6145 56.9845 31.8993 56.9303 32.194C56.587 33.5918 56.0724 34.9417 55.3981 36.2133C55.0737 36.7523 54.8086 37.3248 54.6074 37.9209C54.439 38.5266 54.4504 39.2169 54.8028 39.7375C55.0897 40.1614 55.5484 40.3872 55.9088 40.7338C56.2659 41.0771 56.433 41.7375 56.8286 41.9975C57.1739 42.2245 57.5875 42.0643 57.9397 42.3048C58.3919 42.6137 58.4246 43.2909 58.9571 43.5384Z" fill="#2F2E41"/>
<path d="M64.543 59.2892L65.2027 57.9697C65.2027 57.9697 74.8785 60.8285 76.8576 63.4673C76.8576 63.4673 81.6955 60.3887 84.3344 60.8285L86.9733 61.2683L78.8368 68.5252L68.5013 67.6455L64.543 59.2892Z" fill="#F2F2F2"/>
<path d="M64.103 57.9697L55.0869 70.5043L68.0613 76.8815C68.0613 76.8815 69.2742 77.5412 70.2071 76.8815L78.8366 72.9232L86.9731 61.2683L78.8366 65.4465C78.8366 65.4465 77.957 63.6872 76.1978 64.5669L64.103 57.9697Z" fill="#F37D00"/>
<path d="M77.9569 80.1801L79.7162 75.5621C79.7162 75.5621 83.6745 70.5043 81.4754 68.0854C79.2764 65.6664 76.8574 75.1223 76.8574 75.1223L77.9569 80.1801Z" fill="#A0616A"/>
<path d="M57.6592 79.4431L61.4979 76.331C61.4979 76.331 67.4595 73.9418 66.7709 70.746C66.0823 67.5502 59.2456 74.5163 59.2456 74.5163L57.6592 79.4431Z" fill="#A0616A"/>
<path opacity="0.1" d="M48.1601 57.2003H47.9402C47.9402 57.2003 44.5317 53.1321 43.872 58.6297C43.2123 64.1273 41.0132 82.3794 46.7307 83.0392C52.4483 83.6989 56.5165 80.2903 56.5165 80.2903C56.5165 80.2903 60.6947 73.9131 59.1554 73.9131C58.4106 73.9131 56.3849 73.5786 54.5374 73.6932C52.5664 73.8155 50.7954 74.3707 50.9089 73.8031C51.1288 72.7036 54.3175 58.7397 48.1601 57.2003Z" fill="black"/>
<path d="M47.8302 52.912L46.9506 52.4722C46.9506 52.4722 43.4321 53.1319 42.7724 58.6295C42.1127 64.1271 39.9136 82.3792 45.6311 83.0389C51.3487 83.6986 59.0453 82.1593 59.0453 82.1593C59.0453 82.1593 60.5847 73.8029 59.0453 73.8029C57.506 73.8029 49.5894 74.9024 49.8093 73.8029C50.0292 72.7034 53.9875 54.4513 47.8302 52.912Z" fill="#9FADFD"/>
<path d="M74.7686 77.6512L77.1934 73.9346L78.7268 80.0701L74.7686 81.8294V77.6512Z" fill="#9FADFD"/>
<path d="M24.954 24.6542C28.2332 24.6542 30.8915 21.9959 30.8915 18.7167C30.8915 15.4376 28.2332 12.7793 24.954 12.7793C21.6749 12.7793 19.0166 15.4376 19.0166 18.7167C19.0166 21.9959 21.6749 24.6542 24.954 24.6542Z" fill="#F2F2F2"/>
<path d="M31.9909 62.918H17.917V76.9919H31.9909V62.918Z" fill="#F2F2F2"/>
<path d="M82.2454 0L85.8076 6.16987L89.3696 12.3397H82.2454H75.1211L78.6831 6.16987L82.2454 0Z" fill="#F2F2F2"/>
<path d="M144.311 36.9942C144.226 39.6265 143.585 41.7364 142.388 43.3238C141.191 44.9114 139.768 45.7053 138.121 45.7054C136.78 45.7054 135.604 44.9285 134.593 43.3747C133.583 41.821 133.078 39.4309 133.078 36.2045C133.078 35.4914 133.095 34.8121 133.129 34.1668C133.163 33.5217 133.205 32.9104 133.256 32.3329L134.148 23.9527H128.264C127.245 34.5489 126.409 40.8531 125.755 42.8653C125.101 44.8776 123.993 45.8837 122.431 45.8838C121.726 45.8664 121.053 45.5846 120.546 45.0941C120.252 44.8337 120.019 44.5112 119.865 44.15C119.711 43.7888 119.639 43.3979 119.654 43.0054C119.654 42.2246 120.27 41.1336 121.501 39.7324C122.732 38.3314 123.416 37.0536 123.551 35.8989L125.08 23.9527H122.609C121.913 23.9569 121.227 24.1272 120.61 24.4494C120.041 24.7104 119.547 25.1087 119.17 25.6084L118.075 27.2385H117.184C118.015 24.6576 119.039 22.7175 120.253 21.4183C121.467 20.1192 122.864 19.4697 124.443 19.4697H143.903V23.9527H137.332C137.128 25.9905 136.971 28.0282 136.86 30.0659C136.75 32.1036 136.695 34.1498 136.695 36.2045C136.695 37.5971 137.018 38.7264 137.663 39.5923C138.308 40.4583 139.115 40.8913 140.083 40.8913C140.677 40.8913 141.301 40.6493 141.955 40.1653C142.265 39.9475 142.525 39.6652 142.716 39.3377C142.907 39.0102 143.026 38.6452 143.063 38.2677C143.114 37.8944 143.152 37.6015 143.177 37.389C143.203 37.1768 143.216 37.0452 143.216 36.9941L144.311 36.9942Z" fill="#F37D00"/>
<path opacity="0.1" d="M144.311 36.9942C144.226 39.6265 143.585 41.7364 142.388 43.3238C141.191 44.9114 139.768 45.7053 138.121 45.7054C136.78 45.7054 135.604 44.9285 134.593 43.3747C133.583 41.821 133.078 39.4309 133.078 36.2045C133.078 35.4914 133.095 34.8121 133.129 34.1668C133.163 33.5217 133.205 32.9104 133.256 32.3329L134.148 23.9527H128.264C127.245 34.5489 126.409 40.8531 125.755 42.8653C125.101 44.8776 123.993 45.8837 122.431 45.8838C121.726 45.8664 121.053 45.5846 120.546 45.0941C120.252 44.8337 120.019 44.5112 119.865 44.15C119.711 43.7888 119.639 43.3979 119.654 43.0054C119.654 42.2246 120.27 41.1336 121.501 39.7324C122.732 38.3314 123.416 37.0536 123.551 35.8989L125.08 23.9527H122.609C121.913 23.9569 121.227 24.1272 120.61 24.4494C120.041 24.7104 119.547 25.1087 119.17 25.6084L118.075 27.2385H117.184C118.015 24.6576 119.039 22.7175 120.253 21.4183C121.467 20.1192 122.864 19.4697 124.443 19.4697H143.903V23.9527H137.332C137.128 25.9905 136.971 28.0282 136.86 30.0659C136.75 32.1036 136.695 34.1498 136.695 36.2045C136.695 37.5971 137.018 38.7264 137.663 39.5923C138.308 40.4583 139.115 40.8913 140.083 40.8913C140.677 40.8913 141.301 40.6493 141.955 40.1653C142.265 39.9475 142.525 39.6652 142.716 39.3377C142.907 39.0102 143.026 38.6452 143.063 38.2677C143.114 37.8944 143.152 37.6015 143.177 37.389C143.203 37.1768 143.216 37.0452 143.216 36.9941L144.311 36.9942Z" fill="black"/>
<path d="M144.311 36.1987C144.226 38.8311 143.585 40.9409 142.388 42.5284C141.191 44.116 139.768 44.9099 138.121 44.91C136.78 44.91 135.604 44.1331 134.593 42.5793C133.583 41.0256 133.078 38.6355 133.078 35.4091C133.078 34.6959 133.095 34.0167 133.129 33.3714C133.163 32.7263 133.205 32.1149 133.256 31.5375L134.148 23.1573H128.264C127.245 33.7535 126.409 40.0577 125.755 42.0699C125.101 44.0821 123.993 45.0883 122.431 45.0883C121.726 45.071 121.053 44.7891 120.546 44.2987C120.252 44.0383 120.019 43.7158 119.865 43.3546C119.711 42.9934 119.639 42.6024 119.654 42.21C119.654 41.4292 120.27 40.3382 121.501 38.9369C122.732 37.536 123.416 36.2582 123.551 35.1035L125.08 23.1573H122.609C121.913 23.1615 121.227 23.3317 120.61 23.654C120.041 23.915 119.547 24.3133 119.17 24.8129L118.075 26.4431H117.184C118.015 23.8621 119.039 21.9221 120.253 20.6229C121.467 19.3238 122.864 18.6743 124.443 18.6743H143.903V23.1573H137.332C137.128 25.1951 136.971 27.2328 136.86 29.2705C136.75 31.3082 136.695 33.3544 136.695 35.4091C136.695 36.8017 137.018 37.931 137.663 38.7969C138.308 39.6629 139.115 40.0959 140.083 40.0959C140.677 40.0959 141.301 39.8539 141.955 39.3699C142.265 39.1521 142.525 38.8698 142.716 38.5423C142.907 38.2148 143.026 37.8498 143.063 37.4723C143.114 37.099 143.152 36.8061 143.177 36.5936C143.203 36.3814 143.216 36.2498 143.216 36.1987H144.311Z" fill="#F37D00"/>
</g>
<defs>
<clipPath id="clip0_665_885">
<rect width="143.87" height="150" fill="white" transform="translate(0.44043)"/>
</clipPath>
</defs>
</svg>
