<svg width="201" height="150" viewBox="0 0 201 150" fill="none" xmlns="http://www.w3.org/2000/svg">
<path d="M149.733 22.9863H52.1982V86.3591H149.733V22.9863Z" fill="#6C63FF"/>
<path d="M93.5993 79.1196L89.8926 102.654H114.601L108.919 79.1196H93.5993Z" fill="#C9C9C9"/>
<path opacity="0.24" d="M102.242 132.233C144.878 132.233 179.441 125.425 179.441 117.028C179.441 108.63 144.878 101.823 102.242 101.823C59.6055 101.823 25.042 108.63 25.042 117.028C25.042 125.425 59.6055 132.233 102.242 132.233Z" fill="#E6E6E6"/>
<path d="M119.004 98.5293H84.2549V106.092H119.004V98.5293Z" fill="#E6E6E6"/>
<path d="M60.1285 31.0118C61.071 31.0118 61.8351 30.2478 61.8351 29.3052C61.8351 28.3627 61.071 27.5986 60.1285 27.5986C59.1859 27.5986 58.4219 28.3627 58.4219 29.3052C58.4219 30.2478 59.1859 31.0118 60.1285 31.0118Z" fill="#F4F4F4"/>
<path d="M65.2086 31.0118C66.1511 31.0118 66.9151 30.2478 66.9151 29.3052C66.9151 28.3627 66.1511 27.5986 65.2086 27.5986C64.266 27.5986 63.502 28.3627 63.502 29.3052C63.502 30.2478 64.266 31.0118 65.2086 31.0118Z" fill="#F4F4F4"/>
<path d="M69.9908 31.0118C70.9333 31.0118 71.6974 30.2478 71.6974 29.3052C71.6974 28.3627 70.9333 27.5986 69.9908 27.5986C69.0482 27.5986 68.2842 28.3627 68.2842 29.3052C68.2842 30.2478 69.0482 31.0118 69.9908 31.0118Z" fill="#F37D00"/>
<path d="M149.733 74.1245H52.1982V86.3592H149.733V74.1245Z" fill="#E6E6E6"/>
<path d="M102.023 83.5778C103.864 83.5778 105.357 82.0853 105.357 80.2442C105.357 78.4031 103.864 76.9106 102.023 76.9106C100.182 76.9106 98.6895 78.4031 98.6895 80.2442C98.6895 82.0853 100.182 83.5778 102.023 83.5778Z" fill="#C2C2C2"/>
<path d="M116.222 58.7549H87.8223V60.8247H116.222V58.7549Z" fill="#F4F4F4"/>
<path d="M128.876 64.1982H100.476V66.268H128.876V64.1982Z" fill="#F37D00"/>
<path d="M104.819 53.7446H80.9863V55.8144H104.819V53.7446Z" fill="#F4F4F4"/>
<path d="M133.607 53.7446H109.774V55.8144H133.607V53.7446Z" fill="#F4F4F4"/>
<path d="M109.132 47.9683H87.8223V50.0381H109.132V47.9683Z" fill="#F37D00"/>
<path d="M135.985 47.9683H114.675V50.0381H135.985V47.9683Z" fill="#F37D00"/>
<path d="M82.8269 58.7549H72.1445V60.8247H82.8269V58.7549Z" fill="#F4F4F4"/>
<path d="M93.4646 64.1982H82.7822V66.268H93.4646V64.1982Z" fill="#F4F4F4"/>
<path d="M75.991 53.7446H65.3086V55.8144H75.991V53.7446Z" fill="#F4F4F4"/>
<path d="M75.991 37.9775H65.3086V40.0473H75.991V37.9775Z" fill="#F4F4F4"/>
<path d="M82.8269 43.1616H72.1445V45.2314H82.8269V43.1616Z" fill="#F4F4F4"/>
<path d="M109.132 43.1616H87.8223V45.2314H109.132V43.1616Z" fill="#F37D00"/>
<path d="M135.985 43.1616H114.675V45.2314H135.985V43.1616Z" fill="#F37D00"/>
<path d="M82.8269 47.9683H72.1445V50.0381H82.8269V47.9683Z" fill="#F4F4F4"/>
<path d="M102.261 37.9775H80.2598V40.0473H102.261V37.9775Z" fill="#F4F4F4"/>
<path d="M122.486 37.9775H106.863V40.0473H122.486V37.9775Z" fill="#F4F4F4"/>
<path d="M166.236 9.74658H129.174V35.2261H166.236V9.74658Z" fill="#F37D00"/>
<path d="M142.727 27.489C142.534 27.4895 142.346 27.4246 142.195 27.3049L136.637 22.9116C136.537 22.8304 136.457 22.728 136.401 22.6118C136.346 22.4956 136.317 22.3686 136.317 22.2399C136.317 22.1112 136.346 21.9842 136.401 21.868C136.457 21.7518 136.537 21.6494 136.637 21.5682L142.195 17.0903C142.373 16.9451 142.601 16.8767 142.83 16.9C143.058 16.9233 143.268 17.0365 143.414 17.2146C143.559 17.3928 143.627 17.6213 143.604 17.8499C143.58 18.0785 143.467 18.2885 143.289 18.4336L138.572 22.2299L143.284 25.9566C143.423 26.0678 143.524 26.2192 143.573 26.39C143.622 26.5609 143.617 26.7428 143.559 26.9108C143.501 27.0787 143.392 27.2245 143.247 27.328C143.103 27.4316 142.93 27.4878 142.752 27.489H142.727Z" fill="#F4F4F4"/>
<path d="M152.788 27.4892C152.607 27.4931 152.431 27.4401 152.283 27.3377C152.134 27.2354 152.022 27.0889 151.962 26.9191C151.902 26.7493 151.897 26.5649 151.948 26.3921C151.999 26.2193 152.103 26.0669 152.245 25.9567L156.957 22.2301L152.245 18.4338C152.068 18.2906 151.956 18.083 151.932 17.8568C151.908 17.6305 151.975 17.404 152.118 17.2272C152.262 17.0504 152.469 16.9377 152.695 16.9139C152.922 16.8901 153.148 16.9572 153.325 17.1003L158.878 21.5783C158.981 21.6591 159.065 21.7625 159.123 21.8806C159.181 21.9987 159.211 22.1284 159.211 22.2599C159.209 22.3891 159.178 22.5163 159.122 22.6323C159.065 22.7484 158.983 22.8506 158.883 22.9316L153.325 27.325C153.17 27.4397 152.98 27.4977 152.788 27.4892Z" fill="#F4F4F4"/>
<path d="M145.424 27.489C145.301 27.4894 145.181 27.4622 145.07 27.4094C144.968 27.3632 144.875 27.2971 144.798 27.2149C144.721 27.1327 144.661 27.0361 144.622 26.9305C144.583 26.825 144.565 26.7127 144.569 26.6002C144.573 26.4877 144.6 26.3771 144.648 26.275L148.693 17.4087C148.735 17.2996 148.8 17.2004 148.882 17.1171C148.965 17.0338 149.063 16.9683 149.172 16.9244C149.28 16.8806 149.397 16.8593 149.514 16.862C149.631 16.8648 149.746 16.8913 149.853 16.9402C149.959 16.989 150.055 17.0591 150.133 17.146C150.212 17.233 150.272 17.3351 150.309 17.446C150.347 17.557 150.361 17.6744 150.352 17.7912C150.343 17.9079 150.31 18.0216 150.255 18.1251L146.205 26.9865C146.136 27.1362 146.026 27.2631 145.888 27.3521C145.749 27.4412 145.588 27.4887 145.424 27.489Z" fill="#F4F4F4"/>
<path d="M134.274 112.421H103.515H100.276H69.5179L62.0049 132.238H100.276H103.515H141.782L134.274 112.421Z" fill="#E6E6E6"/>
<path d="M115.69 115.719H99.4356H96.9777H72.1599L67.9258 128.934H96.9777H99.4356H120.452L115.69 115.719Z" fill="#C9C9C9"/>
<path opacity="0.42" d="M119.004 115.719L124.159 128.934H136.861L131.443 115.719H119.004Z" fill="#C9C9C9"/>
<path d="M62.0049 132.238L64.7514 135.92H138.558L141.782 132.238H62.0049Z" fill="#C9C9C9"/>
<path opacity="0.58" d="M38.8983 106.395C38.8983 106.395 31.5445 104.405 29.9424 97.539C29.9424 97.539 41.3412 95.2354 41.6646 106.992L38.8983 106.395Z" fill="#F4F4F4"/>
<path opacity="0.73" d="M39.799 105.664C39.799 105.664 34.6643 97.5388 39.1871 89.9263C39.1871 89.9263 47.8544 95.4341 44.0033 105.669L39.799 105.664Z" fill="#F4F4F4"/>
<path d="M41.1279 105.674C41.1279 105.674 43.8445 97.0913 52.074 95.4644C52.074 95.4644 53.6114 101.037 46.7552 105.694L41.1279 105.674Z" fill="#F4F4F4"/>
<path d="M35.7939 105.48L37.2816 115.68L46.6753 115.72L48.0585 105.53L35.7939 105.48Z" fill="#6C63FF"/>
</svg>
