<?xml version="1.0" encoding="UTF-8" standalone="no"?>
<svg
   width="154.399"
   height="150"
   viewBox="0 0 154.399 126.17342"
   fill="none"
   version="1.1"
   id="svg76"
   xmlns="http://www.w3.org/2000/svg">
  <defs
     id="defs80" />
  <path
     d="M 124.691,13.23972 H 27.1562 v 63.3728 h 97.5348 z"
     fill="#98D9C2"
     id="path2" />
  <path
     d="m 68.5573,69.37302 -3.7067,23.5344 H 89.559 l -5.682,-23.5344 z"
     fill="#c9c9c9"
     id="path4" />
  <path
     opacity="0.24"
     d="m 77.2,122.48642 c 42.636,0 77.199,-6.808 77.199,-15.205 0,-8.398 -34.563,-15.205 -77.199,-15.205 -42.6365,0 -77.2,6.807 -77.2,15.205 0,8.397 34.5635,15.205 77.2,15.205 z"
     fill="#e6e6e6"
     id="path6" />
  <path
     d="M 93.962,88.78272 H 59.2129 v 7.5627 H 93.962 Z"
     fill="#e6e6e6"
     id="path8" />
  <path
     d="m 35.0865,21.26522 c 0.9425,0 1.7066,-0.764 1.7066,-1.7066 0,-0.9425 -0.7641,-1.7066 -1.7066,-1.7066 -0.9426,0 -1.7066,0.7641 -1.7066,1.7066 0,0.9426 0.764,1.7066 1.7066,1.7066 z"
     fill="#f4f4f4"
     id="path10" />
  <path
     d="m 40.1666,21.26522 c 0.9425,0 1.7065,-0.764 1.7065,-1.7066 0,-0.9425 -0.764,-1.7066 -1.7065,-1.7066 -0.9426,0 -1.7066,0.7641 -1.7066,1.7066 0,0.9426 0.764,1.7066 1.7066,1.7066 z"
     fill="#f4f4f4"
     id="path12" />
  <path
     d="m 44.9488,21.26522 c 0.9425,0 1.7066,-0.764 1.7066,-1.7066 0,-0.9425 -0.7641,-1.7066 -1.7066,-1.7066 -0.9426,0 -1.7066,0.7641 -1.7066,1.7066 0,0.9426 0.764,1.7066 1.7066,1.7066 z"
     fill="#FFC53A"
     id="path14" />
  <path
     d="M 124.691,64.37792 H 27.1562 v 12.2347 h 97.5348 z"
     fill="#e6e6e6"
     id="path16" />
  <path
     d="m 76.981,73.83122 c 1.841,0 3.334,-1.4925 3.334,-3.3336 0,-1.8411 -1.493,-3.3336 -3.334,-3.3336 -1.841,0 -3.3335,1.4925 -3.3335,3.3336 0,1.8411 1.4925,3.3336 3.3335,3.3336 z"
     fill="#c2c2c2"
     id="path18" />
  <path
     d="M 91.18,49.00832 H 62.7803 v 2.0698 H 91.18 Z"
     fill="#f4f4f4"
     id="path20" />
  <path
     d="m 103.834,54.45162 h -28.4 v 2.0698 h 28.4 z"
     fill="#FFC53A"
     id="path22" />
  <path
     d="M 79.777,43.99802 H 55.9443 v 2.0698 H 79.777 Z"
     fill="#f4f4f4"
     id="path24" />
  <path
     d="M 108.565,43.99802 H 84.732 v 2.0698 h 23.833 z"
     fill="#f4f4f4"
     id="path26" />
  <path
     d="M 84.09,38.22172 H 62.7803 v 2.0698 H 84.09 Z"
     fill="#FFC53A"
     id="path28" />
  <path
     d="m 110.943,38.22172 h -21.31 v 2.0698 h 21.31 z"
     fill="#FFC53A"
     id="path30" />
  <path
     d="M 57.7849,49.00832 H 47.1025 v 2.0698 h 10.6824 z"
     fill="#f4f4f4"
     id="path32" />
  <path
     d="M 68.4226,54.45162 H 57.7402 v 2.0698 h 10.6824 z"
     fill="#f4f4f4"
     id="path34" />
  <path
     d="M 50.949,43.99802 H 40.2666 v 2.0698 H 50.949 Z"
     fill="#f4f4f4"
     id="path36" />
  <path
     d="M 50.949,28.23092 H 40.2666 v 2.0698 H 50.949 Z"
     fill="#f4f4f4"
     id="path38" />
  <path
     d="M 57.7849,33.41502 H 47.1025 v 2.0698 h 10.6824 z"
     fill="#f4f4f4"
     id="path40" />
  <path
     d="M 84.09,33.41502 H 62.7803 v 2.0698 H 84.09 Z"
     fill="#FFC53A"
     id="path42" />
  <path
     d="m 110.943,33.41502 h -21.31 v 2.0698 h 21.31 z"
     fill="#FFC53A"
     id="path44" />
  <path
     d="M 57.7849,38.22172 H 47.1025 v 2.0698 h 10.6824 z"
     fill="#f4f4f4"
     id="path46" />
  <path
     d="M 77.219,28.23092 H 55.2178 v 2.0698 H 77.219 Z"
     fill="#f4f4f4"
     id="path48" />
  <path
     d="M 97.444,28.23092 H 81.821 v 2.0698 h 15.623 z"
     fill="#f4f4f4"
     id="path50" />
  <path
     d="m 141.194,0 h -37.062 v 25.47952 h 37.062 z"
     fill="#FFC53A"
     id="path52" />
  <path
     d="m 117.685,17.74242 c -0.193,5e-4 -0.381,-0.0644 -0.532,-0.1841 l -5.558,-4.3933 c -0.1,-0.0812 -0.18,-0.1836 -0.236,-0.2998 -0.055,-0.1162 -0.084,-0.2432 -0.084,-0.3719 0,-0.1287 0.029,-0.2557 0.084,-0.3719 0.056,-0.1162 0.136,-0.2186 0.236,-0.2998 l 5.558,-4.4779 c 0.178,-0.1452 0.406,-0.2136 0.635,-0.1903 0.228,0.0233 0.438,0.1365 0.584,0.3146 0.145,0.1782 0.213,0.4067 0.19,0.6353 -0.024,0.2286 -0.137,0.4386 -0.315,0.5837 l -4.717,3.7963 4.712,3.7267 c 0.139,0.1112 0.24,0.2626 0.289,0.4334 0.049,0.1709 0.044,0.3528 -0.014,0.5208 -0.058,0.1679 -0.167,0.3137 -0.312,0.4172 -0.144,0.1036 -0.317,0.1598 -0.495,0.161 z"
     fill="#f4f4f4"
     id="path54" />
  <path
     d="m 127.746,17.74262 c -0.181,0.0039 -0.357,-0.0491 -0.505,-0.1515 -0.149,-0.1023 -0.261,-0.2488 -0.321,-0.4186 -0.06,-0.1698 -0.065,-0.3542 -0.014,-0.527 0.051,-0.1728 0.155,-0.3252 0.297,-0.4354 l 4.712,-3.7266 -4.712,-3.7963 c -0.177,-0.1432 -0.289,-0.3508 -0.313,-0.577 -0.024,-0.2263 0.043,-0.4528 0.186,-0.6296 0.144,-0.1768 0.351,-0.2895 0.577,-0.3133 0.227,-0.0238 0.453,0.0433 0.63,0.1864 l 5.553,4.478 c 0.103,0.0808 0.187,0.1842 0.245,0.3023 0.058,0.1181 0.088,0.2478 0.088,0.3793 -0.002,0.1292 -0.033,0.2564 -0.089,0.3724 -0.057,0.1161 -0.139,0.2183 -0.239,0.2993 l -5.558,4.3934 c -0.155,0.1147 -0.345,0.1727 -0.537,0.1642 z"
     fill="#f4f4f4"
     id="path56" />
  <path
     d="m 120.382,17.74242 c -0.123,4e-4 -0.243,-0.0268 -0.354,-0.0796 -0.102,-0.0462 -0.195,-0.1123 -0.272,-0.1945 -0.077,-0.0822 -0.137,-0.1788 -0.176,-0.2844 -0.039,-0.1055 -0.057,-0.2178 -0.053,-0.3303 0.004,-0.1125 0.031,-0.2231 0.079,-0.3252 l 4.045,-8.8663 c 0.042,-0.1091 0.107,-0.2083 0.189,-0.2916 0.083,-0.0833 0.181,-0.1488 0.29,-0.1927 0.108,-0.0438 0.225,-0.0651 0.342,-0.0624 0.117,0.0028 0.232,0.0293 0.339,0.0782 0.106,0.0488 0.202,0.1189 0.28,0.2058 0.079,0.087 0.139,0.1891 0.176,0.3 0.038,0.111 0.052,0.2284 0.043,0.3452 -0.009,0.1167 -0.042,0.2304 -0.097,0.3339 l -4.05,8.8614 c -0.069,0.1497 -0.179,0.2766 -0.317,0.3656 -0.139,0.0891 -0.3,0.1366 -0.464,0.1369 z"
     fill="#f4f4f4"
     id="path58" />
  <path
     d="M 109.232,102.67442 H 78.473 75.234 44.4759 l -7.513,19.817 h 38.2711 3.239 38.267 z"
     fill="#e6e6e6"
     id="path60" />
  <path
     d="M 90.648,105.97242 H 74.3936 71.9357 47.1179 l -4.2341,13.215 H 71.9357 74.3936 95.41 Z"
     fill="#c9c9c9"
     id="path62" />
  <path
     opacity="0.42"
     d="m 93.962,105.97242 5.155,13.215 h 12.702 l -5.418,-13.215 z"
     fill="#c9c9c9"
     id="path64" />
  <path
     d="m 36.9629,122.49142 2.7465,3.682 h 73.8066 l 3.224,-3.682 z"
     fill="#c9c9c9"
     id="path66" />
  <path
     opacity="0.58"
     d="m 13.8563,96.64842 c 0,0 -7.3538,-1.99 -8.9559,-8.856 0,0 11.3988,-2.3036 11.7222,9.453 z"
     fill="#f4f4f4"
     id="path68" />
  <path
     opacity="0.73"
     d="m 14.757,95.91742 c 0,0 -5.1347,-8.1252 -0.6119,-15.7377 0,0 8.6673,5.5078 4.8162,15.7427 z"
     fill="#f4f4f4"
     id="path70" />
  <path
     d="m 16.0859,95.92742 c 0,0 2.7166,-8.5827 10.9461,-10.2096 0,0 1.5374,5.5726 -5.3188,10.2296 z"
     fill="#f4f4f4"
     id="path72" />
  <path
     d="m 10.7519,95.73342 1.4877,10.2 9.3937,0.04 1.3832,-10.19 z"
     fill="#98D9C2"
     id="path74" />
</svg>
