<svg width="755" height="507" viewBox="0 0 755 507" fill="none" xmlns="http://www.w3.org/2000/svg">
<path fill-rule="evenodd" clip-rule="evenodd" d="M517.52 118.497C549.037 118.497 574.819 144.082 574.819 175.359C574.819 206.636 549.037 232.221 517.52 232.221C511.197 232.221 506.019 237.361 506.019 243.635C506.019 249.909 511.197 255.048 517.52 255.048H547.502C562.877 255.048 575.459 267.534 575.459 282.791C575.459 298.048 562.877 310.533 547.502 310.533C534.205 310.533 523.324 321.331 523.324 334.528C523.324 358.603 503.475 378.302 479.213 378.302H220.268C188.751 378.302 162.969 352.716 162.969 321.439C162.969 290.163 188.751 264.577 220.268 264.577H225.81C232.134 264.577 237.312 259.445 237.312 253.164C237.312 246.889 232.14 241.751 225.81 241.751H188.502C173.126 241.751 160.546 229.265 160.546 214.008C160.546 198.769 173.095 186.296 188.444 186.265H218.466C231.763 186.265 242.644 175.467 242.644 162.271C242.644 138.195 262.493 118.497 286.755 118.497H517.52Z" fill="#F6F9F6"/>
<path d="M406.012 243.024L395.638 239.869L350.539 238.541L340.367 241.318L341.695 266.101L364.705 280.783L387.024 280.335L401.055 267.55L404.17 254.874L406.012 243.024Z" fill="#F8AE9D"/>
<path d="M275.806 282.881C279.07 276.15 282.199 270.747 284.989 266.48C290.466 258.074 298.844 251.976 308.527 249.348L345.31 239.38C345.31 239.38 347.22 276.137 372.519 276.137C397.817 276.137 402.747 241.669 402.747 241.669L445.313 258.652C446.776 259.221 456.649 262.634 468.133 287.269C479.076 310.726 483.858 322.739 483.858 322.739L440.004 335.401L437.269 374.839L438.203 397.363L305.1 397.064L305.845 371.318L305.29 331.84L303.624 334.535L259.324 316.766C259.324 316.766 265.026 305.065 275.806 282.881Z" fill="#F37D00"/>
<path d="M376.817 256.137C366.022 255.937 353.758 234.88 353.758 234.88L353.054 180.79C352.49 165.211 362.18 151.937 379.648 151.865L381.269 151.937C397.526 152.713 410.401 164.488 410.836 178.998C411.247 192.503 411.493 207.422 410.965 214.629C409.86 229.548 392.84 227.03 392.84 227.03C392.804 227.03 392.886 234.545 392.84 238.935C392.71 248.793 381.152 256.472 376.817 256.137Z" fill="#F8AE9D"/>
<path d="M358.447 183.758C358.15 183.616 346.522 179.733 346.263 191.218C346.003 202.704 358.175 200.586 358.2 200.256C358.224 199.926 358.447 183.758 358.447 183.758ZM480.079 323.836L497.916 359.631C499.909 363.63 500.841 368.074 500.625 372.537C499.947 386.433 488.476 397.362 474.568 397.362L422.998 396.552L421.18 371.061L460.103 361.676L445.354 333.79L480.079 323.836ZM261.586 317.674C261.586 317.674 250.521 350.544 238.454 380.42C238.21 381.016 237.94 382.127 237.723 382.736C235 390.144 243.194 397.362 251.47 397.362L321.204 397.241V374.569L277.825 365.36L293.535 330.472L261.586 317.674Z" fill="#F8AE9D"/>
<path d="M401.352 373.527C401.339 373.608 399.754 373.107 397.113 372.944C394.486 372.768 390.761 373.066 387.051 374.65C383.339 376.236 380.536 378.714 378.857 380.731C377.15 382.75 376.419 384.253 376.352 384.199C376.325 384.185 376.487 383.806 376.852 383.156C377.218 382.506 377.801 381.585 378.627 380.542C380.279 378.443 383.096 375.87 386.888 374.258C390.68 372.647 394.486 372.376 397.14 372.647C398.468 372.768 399.538 372.984 400.255 373.174C400.973 373.35 401.366 373.5 401.352 373.527ZM398.968 368.042C398.941 368.15 397.33 367.351 394.554 367.269C391.791 367.148 387.904 367.987 384.274 370.182C380.645 372.389 377.922 375.179 375.999 377.183C375.078 378.158 374.32 378.971 373.724 379.594C373.182 380.163 372.884 380.474 372.857 380.447C372.83 380.433 373.101 380.081 373.602 379.486C374.308 378.636 375.03 377.801 375.769 376.98C377.651 374.922 380.36 372.064 384.057 369.815C387.755 367.581 391.75 366.768 394.567 366.972C395.976 367.053 397.1 367.31 397.844 367.567C398.224 367.675 398.495 367.811 398.685 367.892C398.874 367.973 398.968 368.028 398.968 368.042Z" fill="#EB996E"/>
<path d="M306.536 370.411H316.545C316.545 370.411 339.135 362.245 343.78 363.03C347.965 363.734 363.283 373.905 366.289 375.923C366.627 376.153 366.871 376.465 367.02 376.844C367.315 377.641 367.289 378.521 366.948 379.299C366.607 380.077 365.977 380.692 365.192 381.016L364.88 381.151L365.016 381.611C365.192 382.18 365.274 382.817 365.246 383.44C365.138 385.593 362.24 386.243 361.143 384.388L361.725 385.417C361.955 385.837 362.078 386.311 362.05 386.785L361.996 387.72C361.967 388.225 361.786 388.71 361.476 389.112C361.167 389.513 360.744 389.811 360.262 389.968C359.804 390.12 359.312 390.136 358.846 390.013C358.379 389.89 357.959 389.635 357.635 389.277C355.699 387.137 351.5 382.857 348.656 382.384C346.137 381.963 341.925 381.909 339.379 381.923C338.748 381.924 338.132 382.116 337.612 382.474C337.093 382.831 336.693 383.338 336.467 383.927C338.146 384.049 349.888 390.17 354.046 392.365C355.333 393.042 356.294 394.261 356.457 395.71C356.606 397.01 355.955 398.378 353.382 397.769C347.857 396.482 337.93 391.917 337.93 391.917C337.93 391.917 332.81 390.455 329.492 392.798C324.82 396.089 322.68 397.294 318.671 395.967C314.662 394.64 311.71 392.731 311.71 392.731L303.814 391.944C303.787 391.944 296.325 373.282 306.536 370.411Z" fill="#F8AE9D"/>
<path d="M336.371 374.231C336.386 374.312 337.97 373.811 340.611 373.648C343.238 373.472 346.962 373.77 350.674 375.355C354.384 376.94 357.188 379.418 358.867 381.435C360.574 383.454 361.305 384.957 361.373 384.903C361.4 384.889 361.237 384.51 360.871 383.86C360.349 382.944 359.756 382.07 359.097 381.246C357.445 379.147 354.628 376.574 350.836 374.962C347.044 373.351 343.238 373.08 340.584 373.351C339.533 373.442 338.491 373.618 337.469 373.878C336.751 374.068 336.358 374.204 336.371 374.231ZM338.755 368.746C338.782 368.854 340.394 368.055 343.17 367.973C345.933 367.852 349.82 368.691 353.449 370.886C357.079 373.093 359.801 375.883 361.724 377.887C362.645 378.862 363.404 379.675 364 380.298C364.541 380.867 364.839 381.178 364.866 381.151C364.893 381.137 364.623 380.785 364.122 380.19C363.417 379.34 362.694 378.504 361.955 377.684C360.072 375.626 357.363 372.768 353.667 370.52C349.969 368.285 345.974 367.473 343.157 367.676C341.748 367.757 340.624 368.014 339.879 368.271C339.5 368.38 339.229 368.515 339.04 368.596C338.85 368.678 338.755 368.732 338.755 368.746Z" fill="#EB996E"/>
<path d="M320.079 397.999H425.161C426.599 398.001 427.981 397.446 429.018 396.451C430.056 395.457 430.668 394.099 430.727 392.663L433.883 320.342C434.019 317.173 431.486 314.518 428.317 314.518H317.126C313.957 314.518 311.425 317.159 311.547 320.328L314.499 392.663C314.621 395.643 317.086 397.999 320.079 397.999Z" fill="#0C1F47"/>
<path d="M362.104 357.597C362.102 359.008 362.379 360.406 362.919 361.711C363.459 363.015 364.25 364.2 365.248 365.198C366.246 366.196 367.431 366.988 368.735 367.527C370.04 368.067 371.438 368.344 372.849 368.343C374.261 368.345 375.659 368.067 376.963 367.528C378.267 366.988 379.453 366.197 380.451 365.198C381.449 364.2 382.24 363.015 382.78 361.711C383.32 360.406 383.597 359.008 383.595 357.597C383.597 356.185 383.319 354.787 382.78 353.483C382.24 352.179 381.448 350.994 380.45 349.996C379.452 348.998 378.267 348.206 376.963 347.667C375.658 347.127 374.261 346.85 372.849 346.851C366.908 346.851 362.104 351.681 362.104 357.597Z" fill="#F6F9F6"/>
<path d="M362.511 204.683H353.03V245.313H362.511V204.683Z" fill="#F8AE9D"/>
<path d="M358.79 168.38C360.498 170.584 363.511 171.069 365.993 171.506C369.328 172.091 370.979 173.311 372.711 176.587C373.807 178.679 374.904 180.97 376.867 182.104C378.462 183.029 378.404 180.67 378.657 178.843C378.681 178.681 378.713 178.521 378.755 178.363C379.141 176.904 380.694 177.153 381.149 178.592C381.564 179.887 382.454 180.983 383.585 181.593C383.769 181.692 383.966 181.779 384.162 181.742C384.427 181.705 384.635 181.456 384.808 181.232C385.171 180.763 385.532 180.166 385.904 179.535C387.128 177.46 389.444 178.201 390.811 180.186C391.665 181.419 392.681 182.689 394.077 182.975C394.527 183.075 395.093 183 395.301 182.565C395.567 182.028 395.152 181.493 395.221 180.945C395.278 180.435 395.498 180.21 395.74 179.775C396.691 178.083 398.868 178.022 400.206 179.428C401.138 180.404 402.109 181.343 403.116 182.24C403.543 182.614 404.166 182.988 404.593 182.614C404.825 182.415 404.882 182.078 404.928 181.755C405.171 180.173 405.401 178.592 405.644 177.01C405.782 176.126 406.256 174.967 407.064 175.192C407.456 175.304 407.687 175.715 407.906 176.089C408.172 176.561 412.916 181.954 413.008 181.543C413.747 178.479 415.259 175.69 415.998 172.626C420.777 152.912 399.572 137.058 383.377 136.971C379.776 136.947 376.486 137.005 372.988 137.839C369.259 138.736 365.323 140.16 361.941 142.165C357.197 144.967 353.607 150.06 354.53 156.138" fill="#0C1F47"/>
<path d="M367.306 161.715C369.689 164.332 370.32 168.013 370.542 171.49C370.869 176.734 370.426 182.183 367.925 186.838C367.214 188.164 366.688 194.722 365.59 194.36C365.239 194.247 365.298 189.16 364.375 186.419C362.949 182.172 356.384 180.552 353.429 183.237C348.71 187.507 351.478 192.694 353.044 195.923C353.979 197.871 355.461 200.057 355.719 202.118C356.034 204.758 356.128 214.375 354.352 216.618C352.868 218.497 351.292 209.414 349.948 207.623C340.007 194.292 330.475 160.345 347.449 152.982C350.03 151.861 357.997 151.283 360.415 152.71" fill="#0C1F47"/>
<path fill-rule="evenodd" clip-rule="evenodd" d="M477.587 170.404H480.748C481.512 170.404 482.127 169.782 482.127 169.024V165.863C482.127 165.099 481.506 164.483 480.748 164.483H477.587C477.221 164.485 476.871 164.63 476.613 164.889C476.354 165.147 476.208 165.498 476.207 165.863V169.024C476.207 169.205 476.242 169.385 476.311 169.552C476.38 169.72 476.482 169.872 476.61 170.001C476.738 170.129 476.891 170.23 477.058 170.3C477.226 170.369 477.406 170.404 477.587 170.404ZM488.547 170.404H491.708C492.073 170.402 492.423 170.257 492.682 169.998C492.94 169.74 493.086 169.389 493.087 169.024V165.863C493.087 165.099 492.466 164.483 491.708 164.483H488.547C488.181 164.485 487.831 164.63 487.573 164.889C487.314 165.147 487.168 165.498 487.167 165.863V169.024C487.168 169.389 487.314 169.74 487.573 169.998C487.831 170.257 488.181 170.402 488.547 170.404ZM499.514 170.404H502.674C503.04 170.402 503.39 170.257 503.649 169.998C503.907 169.74 504.053 169.389 504.054 169.024V165.863C504.054 165.099 503.433 164.483 502.674 164.483H499.514C499.148 164.485 498.798 164.63 498.539 164.889C498.281 165.147 498.135 165.498 498.134 165.863V169.024C498.133 169.205 498.169 169.385 498.238 169.552C498.307 169.72 498.409 169.872 498.537 170.001C498.665 170.129 498.818 170.23 498.985 170.3C499.153 170.369 499.332 170.404 499.514 170.404ZM510.474 170.404H513.634C514 170.402 514.35 170.257 514.609 169.998C514.867 169.74 515.013 169.389 515.014 169.024V165.863C515.014 165.099 514.393 164.483 513.634 164.483H510.474C509.71 164.483 509.087 165.105 509.087 165.863V169.024C509.091 169.39 509.239 169.739 509.498 169.998C509.757 170.256 510.108 170.402 510.474 170.404ZM521.435 170.404H524.595C525.36 170.404 525.982 169.782 525.982 169.024V165.863C525.982 165.099 525.36 164.483 524.595 164.483H521.435C521.069 164.485 520.719 164.63 520.46 164.889C520.202 165.147 520.056 165.498 520.055 165.863V169.024C520.056 169.389 520.202 169.74 520.46 169.998C520.719 170.257 521.069 170.402 521.435 170.404ZM488.949 158.453H492.11C492.867 158.453 493.489 157.831 493.489 157.073V153.905C493.488 153.54 493.342 153.19 493.084 152.931C492.825 152.673 492.475 152.527 492.11 152.526H488.949C488.184 152.526 487.569 153.148 487.569 153.905V157.067C487.568 157.248 487.603 157.429 487.672 157.597C487.741 157.765 487.842 157.918 487.97 158.047C488.099 158.176 488.251 158.278 488.419 158.348C488.587 158.418 488.767 158.453 488.949 158.453ZM499.909 158.453H503.07C503.435 158.452 503.785 158.306 504.044 158.048C504.302 157.789 504.448 157.439 504.449 157.073V153.905C504.448 153.54 504.302 153.19 504.044 152.931C503.785 152.673 503.435 152.527 503.07 152.526H499.909C499.544 152.527 499.193 152.673 498.935 152.931C498.677 153.19 498.531 153.54 498.529 153.905V157.067C498.528 157.248 498.563 157.429 498.632 157.597C498.701 157.765 498.802 157.918 498.93 158.047C499.059 158.176 499.211 158.278 499.379 158.348C499.547 158.418 499.727 158.453 499.909 158.453ZM510.869 158.453H514.03C514.795 158.453 515.416 157.831 515.416 157.073V153.905C515.416 153.148 514.795 152.526 514.03 152.526H510.869C510.504 152.527 510.153 152.673 509.895 152.931C509.637 153.19 509.491 153.54 509.489 153.905V157.067C509.489 157.831 510.111 158.453 510.869 158.453ZM499.514 183.243H502.674C503.04 183.242 503.39 183.096 503.649 182.838C503.907 182.579 504.053 182.229 504.054 181.864V178.702C504.054 177.938 503.433 177.322 502.674 177.322H499.514C499.148 177.324 498.798 177.469 498.539 177.728C498.281 177.986 498.135 178.337 498.134 178.702V181.864C498.133 182.045 498.169 182.225 498.238 182.392C498.307 182.56 498.409 182.712 498.537 182.84C498.665 182.969 498.818 183.07 498.985 183.139C499.153 183.209 499.332 183.244 499.514 183.243ZM510.474 183.243H513.634C514 183.242 514.35 183.096 514.609 182.838C514.867 182.579 515.013 182.229 515.014 181.864V178.702C515.014 177.938 514.393 177.322 513.634 177.322H510.474C509.71 177.322 509.087 177.945 509.087 178.702V181.864C509.091 182.23 509.239 182.579 509.498 182.837C509.757 183.095 510.108 183.241 510.474 183.243Z" fill="#9FADFD"/>
<path d="M529.981 244.757C530.175 238.683 531.553 232.473 533.98 226.669C565.584 237.754 556.323 224.735 537.203 220.324C542.347 211.716 550.151 204.732 560.362 201.501C572.728 197.593 587.384 206.493 596.837 219.628C581.968 225.799 585.132 245.434 600.545 225.451C603.632 230.983 605.748 236.942 606.466 242.881C608.271 257.506 601.535 271.86 579.735 278.244C544.599 288.593 529.205 267.642 529.981 244.757ZM552.073 237.29C542.794 237.561 555.78 247.949 562.73 242.92C567.078 239.747 561.371 237.019 552.073 237.29Z" fill="#F37D00"/>
<path d="M588.218 394.14C589.751 275.729 560.381 201.521 560.381 201.521" stroke="#F37D00" stroke-width="2.5" stroke-miterlimit="10"/>
<path d="M596.075 252.456C600.928 272.943 606.344 261.529 600.482 248.065C610.013 239.901 623.99 235.646 639.5 240.191C652.022 243.867 657.961 252.727 658.932 262.709C638.879 261.741 633.988 274.548 659.03 267.448C657.845 289.773 634.259 314.438 604.869 299.252C583.301 288.109 583.904 266.694 596.075 252.456ZM625.135 279.771C635.774 282.615 636.297 274.781 626.999 273.697C620.379 272.924 614.497 276.928 625.135 279.771Z" fill="#F37D00"/>
<path d="M597.381 356.553C592.508 282.21 635.06 244.777 635.06 244.777" stroke="#F37D00" stroke-width="2.5" stroke-miterlimit="10"/>
<path d="M512.346 296.205C502.019 282.74 501.766 260.706 509.706 254.129C517.219 247.9 526.808 247.145 536.049 249.699C533.7 263.705 545.153 269.857 542.416 252.02C563.944 261.635 580.037 287.693 556.083 300.577C537.835 310.365 524.789 307.948 516.307 300.5C547.211 298.526 531.389 290.188 512.346 296.205ZM520.422 273.552C511.414 276.202 512.676 279.026 522.654 279.78C532.613 280.535 532.05 270.166 520.422 273.552Z" fill="#F37D00"/>
<path d="M571.058 355.875C574.028 282.208 515.868 255.28 515.868 255.28" stroke="#F37D00" stroke-width="2.5" stroke-miterlimit="10"/>
<path d="M629.954 347.777H538.215L550.85 383.46C554.085 392.591 562.765 398.719 572.495 398.719H595.693C605.425 398.719 614.103 392.609 617.337 383.46L618.929 384.024L617.337 383.46L629.954 347.777Z" fill="#F6F9F6" stroke="#9FADFD" stroke-width="4"/>
<path d="M642.911 346.527V341.024H526.398V346.527H642.911Z" fill="#9FADFD" stroke="#9FADFD" stroke-width="4"/>
<path d="M177.011 348.5L180.874 396.554H207.608L211.48 348.5H177.011Z" fill="#F37D00"/>
<path d="M174.8 344.167H214.1V351.171H174.8V344.167ZM177.493 344.167H211.408L209.428 336.293H179.481L177.493 344.167Z" fill="#0C1F47"/>
<path d="M186.59 372.974C186.59 374.006 186.793 375.029 187.188 375.982C187.583 376.936 188.162 377.803 188.892 378.533C189.621 379.262 190.488 379.841 191.442 380.236C192.395 380.631 193.418 380.834 194.45 380.834C195.482 380.834 196.504 380.631 197.458 380.236C198.412 379.841 199.278 379.262 200.008 378.533C200.738 377.803 201.317 376.936 201.712 375.982C202.107 375.029 202.31 374.006 202.31 372.974C202.31 371.942 202.107 370.92 201.712 369.966C201.317 369.012 200.739 368.145 200.009 367.415C199.279 366.685 198.412 366.107 197.458 365.712C196.504 365.317 195.482 365.114 194.45 365.114C193.418 365.114 192.395 365.317 191.442 365.712C190.488 366.107 189.621 366.686 188.892 367.416C188.162 368.146 187.583 369.012 187.188 369.966C186.793 370.92 186.59 371.942 186.59 372.974Z" fill="#F6F9F6"/>
<path fill-rule="evenodd" clip-rule="evenodd" d="M257.115 192.714V152.658C257.115 148.508 253.761 145.147 249.62 145.147H204.652C200.51 145.147 197.156 148.508 197.156 152.658V192.714C197.156 194.053 197.513 195.367 198.191 196.521C198.869 197.675 199.843 198.627 201.013 199.279L223.497 211.794C224.61 212.415 225.863 212.74 227.137 212.74C228.412 212.74 229.665 212.415 230.778 211.794L253.263 199.279C254.431 198.626 255.404 197.674 256.081 196.52C256.758 195.366 257.115 194.052 257.115 192.714Z" fill="#9FADFD"/>
<path d="M239.597 189.612H214.671M239.597 178.27H214.671H239.597ZM239.597 166.592H214.671H239.597Z" stroke="#F6F9F6" stroke-width="2.677" stroke-linecap="round" stroke-linejoin="round"/>
<path d="M103.504 396.51H642.194C644.296 396.51 646 398.214 646 400.316C646 402.418 644.296 404.121 642.194 404.121H103.504C101.402 404.121 99.6983 402.418 99.6983 400.316C99.6983 398.214 101.402 396.51 103.504 396.51Z" fill="#9FADFD"/>
<path d="M225.504 301.637L240.896 317.03C241.457 317.59 241.457 318.499 240.896 319.059C240.336 319.62 239.427 319.62 238.866 319.059L223.474 303.667C222.913 303.106 222.913 302.197 223.474 301.637C224.034 301.076 224.943 301.077 225.504 301.637Z" fill="#9FADFD"/>
<path d="M227.01 312.657L231.449 317.096C232.009 317.657 232.01 318.566 231.449 319.126C230.889 319.687 229.98 319.686 229.419 319.126L224.98 314.687C224.42 314.126 224.42 313.217 224.98 312.657C225.54 312.096 226.449 312.097 227.01 312.657Z" fill="#9FADFD"/>
</svg>
