<svg xmlns="http://www.w3.org/2000/svg" width="578.9" height="331" fill="none" viewBox="0 0 579 331"><path fill="#f6f9f6" fill-rule="evenodd" d="M418 0a57 57 0 1 1 0 114c-6 0-12 5-12 12 0 6 6 11 12 11h30a28 28 0 1 1 0 55c-13 0-24 11-24 24 0 25-20 44-44 44H121c-32 0-58-25-58-57 0-31 26-57 58-57h5c6 0 12-5 12-11s-6-11-12-11H89a28 28 0 1 1 0-55h30c13-1 24-12 24-25 0-24 20-44 44-44z" clip-rule="evenodd"/><path fill="#f8ae9d" d="m306 125-10-3-45-2-10 3 1 25 23 15 22-1 14-13 3-12z"/><path fill="#f37d00" d="m176 165 9-17c6-8 14-14 24-17l37-10s2 37 27 37 30-34 30-34l43 17c1 0 11 4 22 28l16 36-44 12-2 40 1 22H205l1-26v-39l-2 2-44-17z"/><path fill="#f8ae9d" d="M277 138c-11 0-23-21-23-21l-1-54c0-16 9-29 27-29h2c16 1 29 12 29 27v36c-1 14-18 12-18 12v12c0 10-12 17-16 17z"/><path fill="#f8ae9d" d="M259 66c-1 0-12-4-12 7-1 12 11 9 12 9zm121 140 18 36a26 26 0 0 1-23 37l-52-1-2-25 39-9-14-28zm-218-6-23 62-1 3c-3 7 5 14 14 14h70v-23l-44-9 16-35z"/><path fill="#f8ae9d" d="M207 252h10s22-8 27-7a130 130 0 0 1 23 14 3 3 0 0 1-2 4v1l1 1c-1 2-3 3-5 1l1 1v3a3 3 0 0 1-4 1c-2-2-6-6-9-7h-9a3 3 0 0 0-3 2l17 8c2 1 3 2 3 4 0 1-1 2-3 2l-16-6s-5-2-8 1c-5 3-7 4-11 3l-7-3-8-1s-7-19 3-22z"/><path fill="#eb996e" d="M237 256h4a22 22 0 0 1 18 7l3 4-1-1-2-3c-1-2-4-5-8-6-4-2-7-2-10-2a19 19 0 0 0-4 1zm2-5 4-1 11 3 8 7 2 2 1 1-1-1-2-2-8-8c-4-2-8-3-11-2h-4z"/><path fill="#0c1f47" d="M220 280h105a6 6 0 0 0 6-5l3-73c0-3-2-6-5-6H217c-3 0-5 3-5 6l3 73c0 3 2 5 5 5z"/><path fill="#f6f9f6" d="M262 239a11 11 0 1 0 22 0 11 11 0 1 0-22 0z"/><path fill="#f8ae9d" d="M263 87h-10v40h10z"/><path fill="#0c1f47" d="M259 50c2 2 5 3 7 3 4 1 5 2 7 5 1 3 2 5 4 6s2-1 2-3v-1h2l3 3v1l1-1 1-2c1-2 4-1 5 1l3 3 2-1v-2c1-2 3-2 5-1l2 3 2 1v-1l1-5 1-2 1 1 5 5c1-3 3-5 3-8 5-20-16-36-32-36l-11 1-11 4c-4 3-8 8-7 14"/><path fill="#0c1f47" d="M268 44c2 2 3 6 3 9 0 6 0 11-3 16 0 1-1 8-2 7l-1-8c-2-4-8-6-11-3-5 4-2 10-1 13l3 6-1 15c-2 1-3-8-5-9-10-14-19-48-2-55 2-1 10-2 13 0"/><path fill="#9fadfd" fill-rule="evenodd" d="M378 52h3l1-1v-3l-1-2h-3a1 1 0 0 0-1 2v3a1 1 0 0 0 1 1zm11 0h3a1 1 0 0 0 1-1v-3l-1-2h-3a1 1 0 0 0-2 2v3a1 1 0 0 0 2 1zm11 0h3a1 1 0 0 0 1-1v-3l-1-2h-3a1 1 0 0 0-2 2v3a1 1 0 0 0 1 1zm11 0h3a1 1 0 0 0 1-1v-3l-1-2h-3l-2 2v3a1 1 0 0 0 2 1zm11 0h3l1-1v-3l-1-2h-3a1 1 0 0 0-2 2v3a1 1 0 0 0 2 1zm-33-12h3l2-1v-3a1 1 0 0 0-2-2h-3l-1 2v3a1 1 0 0 0 1 1zm11 0h3a1 1 0 0 0 2-1v-3a1 1 0 0 0-2-2h-3a1 1 0 0 0-1 2v3a1 1 0 0 0 1 1zm11 0h3l2-1v-3l-2-2h-3a1 1 0 0 0-1 2v3zm-11 25h3a1 1 0 0 0 1-1v-3l-1-2h-3a1 1 0 0 0-2 2v3a1 1 0 0 0 1 1zm11 0h3a1 1 0 0 0 1-1v-3l-1-2h-3l-2 2v3a1 1 0 0 0 2 1z" clip-rule="evenodd" style="fill:#34b0ff;fill-opacity:1"/><path fill="#f37d00" d="M430 127c0-6 2-13 4-18 32 11 23-2 4-7 5-8 12-15 23-19 12-4 27 5 36 19-15 6-12 25 4 5l6 18c2 14-5 29-27 35-35 10-50-10-50-33zm22-8c-9 0 4 11 11 6 4-3-1-6-11-6z"/><path stroke="#f37d00" stroke-miterlimit="10" stroke-width="2.5" d="M489 276c1-118-28-193-28-193"/><path fill="#f37d00" d="M496 134c5 21 11 9 5-4 9-8 23-12 39-8 12 4 18 13 19 23-20-1-25 11 0 4-1 23-24 47-54 32-21-11-21-32-9-47zm29 28c11 3 12-5 2-6-6-1-12 3-2 6z"/><path stroke="#f37d00" stroke-miterlimit="10" stroke-width="2.5" d="M498 238c-5-74 37-111 37-111"/><path fill="#f37d00" d="M413 178c-11-13-11-35-3-42 8-6 17-7 26-4-2 14 9 20 7 2 21 10 37 36 13 48-18 10-31 8-39 0 31-2 15-10-4-4zm8-23c-9 3-8 6 2 7 10 0 9-10-2-7z"/><path stroke="#f37d00" stroke-miterlimit="10" stroke-width="2.5" d="M471 238c3-74-55-101-55-101"/><path fill="#f6f9f6" stroke="#9fadfd" stroke-width="4" d="M530 230h-91l12 35c3 9 12 16 22 16h23c10 0 18-6 22-16l1 1-1-1z" style="stroke:#34b0ff;stroke-opacity:1"/><path fill="#9fadfd" stroke="#9fadfd" stroke-width="4" d="M543 228v-5H427v5z" style="fill:#34b0ff;fill-opacity:1;stroke:#34b0ff;stroke-opacity:1"/><path fill="#f37d00" d="m77 230 4 48h27l4-48z"/><path fill="#0c1f47" d="M75 226h39v7H75Zm3 0h34l-2-8H80Z"/><path fill="#f6f9f6" d="M87 255a8 8 0 1 0 16 0 8 8 0 0 0-16 0z"/><path fill="#9fadfd" fill-rule="evenodd" d="M157 75V35c0-5-3-8-7-8h-45c-4 0-8 3-8 8v40a8 8 0 0 0 4 6l23 13a7 7 0 0 0 7 0l23-13a8 8 0 0 0 3-6z" clip-rule="evenodd" style="fill:#34b0ff;fill-opacity:1"/><path stroke="#f6f9f6" stroke-linecap="round" stroke-linejoin="round" stroke-width="2.7" d="M140 72h-25m25-12h-25zm0-12h-25z"/><path fill="#9fadfd" d="M4 278h551c5 0 5 8 0 8H4c-5 0-5-8 0-8zm122-94 15 15c1 1-1 3-2 2l-15-15c-1-1 1-3 2-2zm1 11 5 4c1 1-1 3-2 2l-5-4c-1-1 1-3 2-2z" style="fill:#34b0ff;fill-opacity:1"/></svg>