<svg width="578.9" height="331" viewBox="0 0 579 331" fill="none" xmlns="http://www.w3.org/2000/svg"><path fill-rule="evenodd" clip-rule="evenodd" d="M430 37a57 57 0 1 1 0 114c-6 0-12 5-12 12 0 6 6 11 12 11h30a28 28 0 1 1 0 55c-13 0-24 11-24 24 0 25-20 44-44 44H133c-32 0-58-25-58-57 0-31 26-57 58-57h5c6 0 12-5 12-11s-6-11-12-11h-37a28 28 0 1 1 0-55h30c13-1 24-12 24-25 0-24 20-44 44-44z" fill="#f6f9f6"/><path d="m318 162-10-3-45-2-10 3 1 25 23 15 22-1 14-13 3-12z" fill="#f8ae9d"/><path d="m188 202 9-17c6-8 14-14 24-17l37-10s2 37 27 37 30-34 30-34l43 17c1 0 11 4 22 28l16 36-44 12-2 40 1 22H217l1-26v-39l-2 2-44-17 16-34z" fill="#f37d00"/><path d="M289 175c-11 0-23-21-23-21l-1-54c0-16 9-29 27-29h2c16 1 29 12 29 27v36c-1 14-18 12-18 12v12c0 10-12 17-16 17z" fill="#f8ae9d"/><path d="M271 103c-1 0-12-4-12 7-1 12 11 9 12 9v-16zm121 140 18 36a26 26 0 0 1-23 37l-52-1-2-25 39-9-14-28zm-218-6-23 62-1 3c-3 7 5 14 14 14h70v-23l-44-9 16-35z" fill="#f8ae9d"/><path d="M314 292h-5a22 22 0 0 0-18 8l-2 3v-1a20 20 0 0 1 10-9c4-1 8-2 10-1a19 19 0 0 1 5 0zm-3-5-4-1c-3 0-7 1-10 3l-9 7-2 2-1 1 1-1 2-2 8-7c4-3 8-3 11-3h3l1 1z" fill="#eb996e"/><path d="M219 289h10s22-8 27-7a130 130 0 0 1 23 14 3 3 0 0 1-2 4v1l1 1c-1 2-3 3-5 1l1 1v3a3 3 0 0 1-4 1c-2-2-6-6-9-7h-9a3 3 0 0 0-3 2l17 8c2 1 3 2 3 4 0 1-1 2-3 2l-16-6s-5-2-8 1c-5 3-7 4-11 3l-7-3-8-1s-7-19 3-22z" fill="#f8ae9d"/><path d="M249 293h4a22 22 0 0 1 18 7l3 4-1-1-2-3c-1-2-4-5-8-6-4-2-7-2-10-2a19 19 0 0 0-4 1zm2-5 4-1 11 3 8 7 2 2 1 1-1-1-2-2-8-8c-4-2-8-3-11-2h-4v1z" fill="#eb996e"/><path d="M232 317h105a6 6 0 0 0 6-5l3-73c0-3-2-6-5-6H229c-3 0-5 3-5 6l3 73c0 3 2 5 5 5z" fill="#0c1f47"/><path d="M274 276a11 11 0 1 0 22 0 11 11 0 1 0-22 0z" fill="#f6f9f6"/><path d="M275 124h-10v40h10z" fill="#f8ae9d"/><path d="M271 87c2 2 5 3 7 3 4 1 5 2 7 5 1 3 2 5 4 6s2-1 2-3v-1h2l3 3v1l1-1 1-2c1-2 4-1 5 1l3 3 2-1v-2c1-2 3-2 5-1l2 3 2 1v-1l1-5 1-2 1 1 5 5c1-3 3-5 3-8 5-20-16-36-32-36l-11 1-11 4c-4 3-8 8-7 14" fill="#0c1f47"/><path d="M280 81c2 2 3 6 3 9 0 6 0 11-3 16 0 1-1 8-2 7l-1-8c-2-4-8-6-11-3-5 4-2 10-1 13l3 6-1 15c-2 1-3-8-5-9-10-14-19-48-2-55 2-1 10-2 13 0" fill="#0c1f47"/><path fill-rule="evenodd" clip-rule="evenodd" d="M390 89h3l1-1v-3l-1-2h-3a1 1 0 0 0-1 2v3a1 1 0 0 0 1 1zm11 0h3a1 1 0 0 0 1-1v-3l-1-2h-3a1 1 0 0 0-2 2v3a1 1 0 0 0 2 1zm11 0h3a1 1 0 0 0 1-1v-3l-1-2h-3a1 1 0 0 0-2 2v3a1 1 0 0 0 1 1h1zm11 0h3a1 1 0 0 0 1-1v-3l-1-2h-3l-2 2v3a1 1 0 0 0 2 1zm11 0h3l1-1v-3l-1-2h-3a1 1 0 0 0-2 2v3a1 1 0 0 0 2 1zm-33-12h3l2-1v-3a1 1 0 0 0-2-2h-3l-1 2v3a1 1 0 0 0 1 1zm11 0h3a1 1 0 0 0 2-1v-3a1 1 0 0 0-2-2h-3a1 1 0 0 0-1 2v3a1 1 0 0 0 1 1zm11 0h3l2-1v-3l-2-2h-3a1 1 0 0 0-1 2v3l1 1zm-11 25h3a1 1 0 0 0 1-1v-3l-1-2h-3a1 1 0 0 0-2 2v3a1 1 0 0 0 1 1h1zm11 0h3a1 1 0 0 0 1-1v-3l-1-2h-3l-2 2v3a1 1 0 0 0 2 1z" fill="#9fadfd"/><path d="M442 164c0-6 2-13 4-18 32 11 23-2 4-7 5-8 12-15 23-19 12-4 27 5 36 19-15 6-12 25 4 5l6 18c2 14-5 29-27 35-35 10-50-10-50-33zm22-8c-9 0 4 11 11 6 4-3-1-6-11-6z" fill="#f37d00"/><path d="M501 313c1-118-28-193-28-193" stroke="#f37d00" stroke-width="2.5" stroke-miterlimit="10"/><path d="M508 171c5 21 11 9 5-4 9-8 23-12 39-8 12 4 18 13 19 23-20-1-25 11 0 4-1 23-24 47-54 32-21-11-21-32-9-47zm29 28c11 3 12-5 2-6-6-1-12 3-2 6z" fill="#f37d00"/><path d="M510 275c-5-74 37-111 37-111" stroke="#f37d00" stroke-width="2.5" stroke-miterlimit="10"/><path d="M425 215c-11-13-11-35-3-42 8-6 17-7 26-4-2 14 9 20 7 2 21 10 37 36 13 48-18 10-31 8-39 0 31-2 15-10-4-4zm8-23c-9 3-8 6 2 7 10 0 9-10-2-7z" fill="#f37d00"/><path d="M483 275c3-74-55-101-55-101" stroke="#f37d00" stroke-width="2.5" stroke-miterlimit="10"/><path d="M542 267h-91l12 35c3 9 12 16 22 16h23c10 0 18-6 22-16l1 1-1-1z" fill="#f6f9f6" stroke="#9fadfd" stroke-width="4"/><path d="M555 265v-5H439v5z" fill="#9fadfd" stroke="#9fadfd" stroke-width="4"/><path d="m89 267 4 48h27l4-48z" fill="#f37d00"/><path d="M87 263h39v7H87Zm3 0h34l-2-8H92Z" fill="#0c1f47"/><path d="M99 292a8 8 0 1 0 16 0 8 8 0 0 0-16 0z" fill="#f6f9f6"/><path fill-rule="evenodd" clip-rule="evenodd" d="M169 112V72c0-5-3-8-7-8h-45c-4 0-8 3-8 8v40a8 8 0 0 0 4 6l23 13a7 7 0 0 0 7 0l23-13a8 8 0 0 0 3-6z" fill="#9fadfd"/><path d="M152 109h-25m25-12h-25zm0-12h-25z" stroke="#f6f9f6" stroke-width="2.7" stroke-linecap="round" stroke-linejoin="round"/><path d="M16 315h538a4 4 0 1 1 0 8H16a4 4 0 1 1 0-8zm122-94 15 15a1 1 0 1 1-2 2l-15-15a1 1 0 1 1 2-2zm1 11 5 4a1 1 0 0 1-2 2l-5-4a1 1 0 0 1 2-2z" fill="#9fadfd"/><path d="M0 0h579v331H0z"/><rect width="561.1" height="323.1" x="16" y="5" ry="2"/></svg>