<svg xmlns="http://www.w3.org/2000/svg" xml:space="preserve" id="Layer_1" x="0" y="0" version="1.1" viewBox="0 0 1235.751 830.534"><defs id="defs486"><path id="rect2961" d="M555.777 99.374h387.105v150.088H555.777z"/></defs><style id="style93" type="text/css">.st1{fill:#3b4659}</style><path id="path97" d="m699.916 796.672-687.32-20.35s-28.34-.89 0-5.36c28.34-4.47 584.43-69.19 584.43-69.19h60.51z" class="st1"/><path id="path99" d="m633.786 828.152-608.17-35.23-24.26-13.53 669.19 24.38s15.83.64 29.36 9.83l-15.57 14.55s-24.51 5.36-50.55 0z" class="st1"/><path id="path101" d="m1223.446 729.342-32.98 17.47c-3.02 1.6-6.27 2.7-9.64 3.26l-482.07 80.46 9.7-10.48a43.344 43.344 0 0 1 25.08-13.39z" class="st1"/><path id="path105" d="m949.746 511.412 225.08 194.04s41.6 18.43 25.51 19.65c-15.12 1.15-468.77 70.75-470.91 70.57-3.59-.29-12.44.56-23.76-9.21-12.65-10.91-532.94-219.96-668.88-274.48-7.8-3.13-5.98-14.7 2.4-15.26 91.31-6.1 886.57 6.11 886.57 6.11s18.89.62 23.99 8.58z" style="fill:#737fbe"/><path id="path107" d="m960.746 309.382 267.2 389.54s13.58 17.49 1.5 20.28c-14.85 3.43-484.07 65.86-486.21 65.57-3.59-.5-16.65 21.19-27.97 4.67-12.66-18.48-512.87-374.16-630.97-463.42-11.47-8.67 3.26-25.15 18-28 75.54-14.61 834.45-3.15 834.45-3.15s18.9 1.04 24 14.51z" style="fill:#f4f4f4;fill-opacity:1"/><path id="path109" d="m949.746 151.552 281.88 551.47s3.1 17.47-4.34 17.78c-15.33.63-495.71 76.28-497.85 75.88-3.59-.67-12.44 1.27-23.76-20.9-13.08-25.62-388.15-539.96-463.81-643.64-6.58-9.02-2.38-21.82 8.27-25.18 40.36-12.74 675.63 25.14 675.63 25.14s18.88 1.38 23.98 19.45z" style="fill:#ea8623"/><path id="path111" d="m948.752 85.615 282.864 607.857s11.74 24.26-4.34 27.32c-15.12 2.88-495.71 76.32-497.85 75.88-3.59-.73-12.44 1.4-23.76-23.03-14.55-31.4-320.59-750.442-320.59-750.442s-1.218-25.32 38.71-21.138c61.28 9.19 501.96 62.86 501.96 62.86s14.313.624 23.006 20.693z" class="st1"/><g id="g2807" transform="matrix(2.84713 0 0 3.03442 -581.724 -985.106)"><path id="path2579" fill="#f6f9f6" d="m456.407 466.074 14.337-.531c.939 1.98.06 3.654-1.972 3.739l-11.785.494c-5.487.229-12.033-3.874-14.575-9.176l-6.643-13.992a14.984 14.984 0 0 1-.595-1.436c-2.2-6.243 1.146-11.064 7.895-11.036 6.636.027 14.244 4.746 17.822 10.784a17.267 17.267 0 0 1 .74 1.388 13.626 13.626 0 0 1 1.017 2.924l-2.667 1.498-1.419.797-6.36 3.572-4.227 2.376-1.338.752-.859-1.746-1.222-2.478 1.538-.852 8.166-4.518 3.74-2.071-.099-.212a12.149 12.149 0 0 0-.78-1.394c-2.622-4.064-7.804-7.171-12.322-7.168-4.569.002-6.895 3.178-5.644 7.344.098.333.22.671.368 1.014a9.479 9.479 0 0 0 .36.766l.902 1.916 4.98 10.493c1.843 3.879 6.623 6.902 10.642 6.753z" style="stroke-width:.666667"/><path id="path2581" fill="#f6f9f6" d="m534.98 437.67-11.801.005c-.856-1.816-.152-3.283 1.566-3.276l9.629.041c4.297.018 9.485 3.732 11.653 8.298l5.665 12.034c.196.417.367.829.516 1.234 1.967 5.381-.224 9.719-5.333 9.932-5.185.217-11.536-3.883-14.726-9.381a16.933 16.933 0 0 1-.667-1.267 13.736 13.736 0 0 1-.953-2.677l2.153-1.372 1.131-.72 4.95-3.154 3.187-2.032.993-.632.74 1.521 1.05 2.159-1.133.733-6.194 4.002-2.941 1.901.09.193c.202.43.435.852.693 1.261 2.296 3.664 6.576 6.363 10.105 6.233 3.494-.129 5.068-2.99 3.908-6.618a9.072 9.072 0 0 0-.329-.88 10.632 10.632 0 0 0-.31-.664l-.776-1.663-4.289-9.108c-1.587-3.371-5.415-6.104-8.577-6.103z" style="stroke-width:.666667"/><path id="path2583" fill="#f6f9f6" d="m516.734 456.397.106.226a7.473 7.473 0 0 1 .636 1.972c.445 2.715-1.106 4.76-4.056 4.867l-13.567.494c.465.984 1.289 1.86 2.242 2.478.951.618 2.033.98 3.016.939l11.009-.455c1.91-.079 3.387-.757 4.339-1.847 1.495-1.707 1.71-4.429.297-7.451l-.62-1.314a17.888 17.888 0 0 0-1.659-2.798l-3.729-1.321-1.392-.494-.009-.021-2.071-.734-11.339-4.018-5.394-1.912-.102-.21-.11-.231a7.42 7.42 0 0 1-.639-2.002l-.003-.012c-.428-2.754 1.231-4.752 4.285-4.754l13.425-.007c-.451-.955-1.244-1.821-2.162-2.449-.919-.628-1.968-1.021-2.924-1.025l-11.089-.047c-1.994-.008-3.56.603-4.592 1.654-1.634 1.665-1.924 4.427-.461 7.551l.642 1.359c.473 1 1.057 1.97 1.732 2.896l3.931 1.378 1.45.51.009.02 2.142.751 11.356 3.98 5.202 1.824.099.203z" style="stroke-width:.666667"/><path id="path2585" fill="#f6f9f6" d="m487.768 445.278 8.919 18.862c1.065 2.251.129 4.153-2.104 4.247l-10.994-23.242c-1.88-3.973-6.662-7.191-10.723-7.188l-6.519.005 14.678 30.995-4.352.183-16.636-35.119 11.073.048c6.327.028 13.744 5.047 16.658 11.209z" style="stroke-width:.666667"/><path id="path2587" fill="#f6f9f6" d="M532.713 466.453c-2.028.084-4.511-1.604-5.534-3.773l-10.55-22.363 3.751-.016z" style="stroke-width:.666667"/><path id="path2589" fill="#ee7a19" d="m519.107 437.973-3.485.003c-.951-2.015-.152-3.642 1.773-3.634z" style="stroke-width:.666667"/></g></svg>