<svg xmlns="http://www.w3.org/2000/svg" xml:space="preserve" id="Layer_1" x="0" y="0" version="1.1" viewBox="0 0 1235.751 830.534"><defs id="defs486"><path id="rect2961" d="M555.777 99.374h387.105v150.088H555.777z"/></defs><style id="style93" type="text/css">.st1{fill:#3b4659}</style><path id="path97" d="m699.916 796.672-687.32-20.35s-28.34-.89 0-5.36c28.34-4.47 584.43-69.19 584.43-69.19h60.51z" class="st1"/><path id="path99" d="m633.786 828.152-608.17-35.23-24.26-13.53 669.19 24.38s15.83.64 29.36 9.83l-15.57 14.55s-24.51 5.36-50.55 0z" class="st1"/><path id="path101" d="m1223.446 729.342-32.98 17.47c-3.02 1.6-6.27 2.7-9.64 3.26l-482.07 80.46 9.7-10.48a43.344 43.344 0 0 1 25.08-13.39z" class="st1"/><path id="path105" d="m949.746 511.412 225.08 194.04s41.6 18.43 25.51 19.65c-15.12 1.15-468.77 70.75-470.91 70.57-3.59-.29-12.44.56-23.76-9.21-12.65-10.91-532.94-219.96-668.88-274.48-7.8-3.13-5.98-14.7 2.4-15.26 91.31-6.1 886.57 6.11 886.57 6.11s18.89.62 23.99 8.58z" style="fill:#737fbe"/><path id="path107" d="m960.746 309.382 267.2 389.54s13.58 17.49 1.5 20.28c-14.85 3.43-484.07 65.86-486.21 65.57-3.59-.5-16.65 21.19-27.97 4.67-12.66-18.48-512.87-374.16-630.97-463.42-11.47-8.67 3.26-25.15 18-28 75.54-14.61 834.45-3.15 834.45-3.15s18.9 1.04 24 14.51z" style="fill:#f4f4f4;fill-opacity:1"/><path id="path109" d="m949.746 151.552 281.88 551.47s3.1 17.47-4.34 17.78c-15.33.63-495.71 76.28-497.85 75.88-3.59-.67-12.44 1.27-23.76-20.9-13.08-25.62-388.15-539.96-463.81-643.64-6.58-9.02-2.38-21.82 8.27-25.18 40.36-12.74 675.63 25.14 675.63 25.14s18.88 1.38 23.98 19.45z" style="fill:#ea8623"/><path id="path111" d="m948.752 85.615 282.864 607.857s12.144 24.284-3.936 27.344c-15.12 2.88-495.286 77.569-498.245 75.998-5.612-.118-12.449 1.258-23.769-23.172-14.55-31.4-320.59-750.442-320.59-750.442s-1.218-25.32 38.71-21.138c61.28 9.19 501.96 62.86 501.96 62.86s14.313.624 23.006 20.693z" class="st1"/><g id="g1276" style="display:inline" transform="matrix(3.06014 .03913 -.04595 2.6057 534.56 60.331)"><path id="path1048" fill="#f6f9f6" d="m56.865 143.286 15.944-1.984c.928 3.025-.104 5.733-2.33 6.044l-13.211 1.847c-6.327.884-13.635-5.228-16.144-13.635l-6.465-21.913a26.492 26.492 0 0 1-.554-2.229c-1.944-9.641 2.433-17.042 10.13-17.032 7.414.01 15.437 6.935 18.959 15.866a28.236 28.236 0 0 1 .723 2.061c.46 1.5.768 2.965.938 4.377l-3.001 2.387-1.611 1.281-7.357 5.847-5.01 3.986-1.609 1.28-.846-2.722-1.2-3.853 1.85-1.423 9.592-7.37 4.275-3.287-.094-.318a19.536 19.536 0 0 0-.769-2.082c-2.613-6.048-8.128-10.618-13.192-10.556-5.197.064-8.173 4.961-7.117 11.37.082.514.192 1.035.331 1.565a15.559 15.559 0 0 0 .346 1.18l.87 2.96 4.85 16.338c1.81 6.097 7.097 10.588 11.702 10.015z" style="stroke-width:.666667"/><path id="path1050" fill="#f6f9f6" d="m135.192 98.663-10.418.125c-.809-2.429-.21-4.393 1.323-4.39l8.459.014c3.703.006 8.278 4.82 10.32 10.782l5.391 15.86c.189.554.355 1.101.503 1.642 1.958 7.201.332 13.278-4.062 13.89-4.526.632-10.326-4.736-13.37-12.247l-.018-.042a29.065 29.065 0 0 1-.621-1.688 26.15 26.15 0 0 1-.94-3.662l1.876-1.966.978-1.025 4.225-4.43 2.672-2.803.825-.865.7 2.007.996 2.856-.94 1.016-5.216 5.638-2.527 2.732.087.262c.195.584.417 1.157.66 1.711 2.174 4.97 6.06 8.492 9.135 8.11 3.014-.374 4.216-4.38 3.04-9.257-.092-.388-.2-.78-.325-1.178a17.12 17.12 0 0 0-.298-.885l-.744-2.212-4.083-12.048c-1.5-4.428-4.894-7.98-7.628-7.947z" style="stroke-width:.666667"/><path id="path1052" fill="#f6f9f6" d="m119.234 124.838.104.316a14.536 14.536 0 0 1 .626 2.777c.464 3.862-.96 6.902-3.755 7.244l-13.176 1.61c.457 1.432 1.27 2.68 2.21 3.533.939.85 2.004 1.31 2.969 1.176l10.612-1.465c1.806-.25 3.183-1.336 4.053-2.978 1.356-2.553 1.493-6.457.12-10.675l-.6-1.828a29.21 29.21 0 0 0-1.59-3.873l-3.493-1.71-1.31-.642-.009-.028-1.955-.958-10.851-5.314-5.25-2.571c-.032-.1-.066-.198-.097-.297l-.105-.327a13.844 13.844 0 0 1-.605-2.831l-.002-.016c-.387-3.888 1.255-6.716 4.21-6.752l12.69-.16c-.427-1.299-1.17-2.472-2.028-3.321-.86-.851-1.841-1.381-2.736-1.383l-10.551-.017c-1.934-.003-3.468.855-4.494 2.332-1.638 2.355-1.975 6.27-.577 10.694l.616 1.928a28.8 28.8 0 0 0 1.675 4.111l3.863 1.85 1.417.681.01.028 2.085 1 10.912 5.226 4.916 2.355.096.285z" style="stroke-width:.666667"/><path id="path1054" fill="#f6f9f6" d="m91.215 110.021 8.664 27.254c1.047 3.294.093 6.227-2.162 6.544l-10.713-33.876c-1.8-5.695-6.578-10.248-10.764-10.194l-6.826.09 14.269 45.952-4.634.651-16.142-52.303 11.67.024c6.499.014 13.85 7.088 16.638 15.858z" style="stroke-width:.666667"/><path id="path1056" fill="#f6f9f6" d="M134.18 138.224c-1.836.256-4.152-1.993-5.15-5.018l-10.146-30.757 3.42-.078z" style="stroke-width:.666667"/><path id="path1058" fill="#ee7a19" d="m121.105 99.233-3.18.042c-.898-2.725-.19-4.926 1.563-4.923z" style="stroke-width:.666667"/></g></svg>