<svg xmlns="http://www.w3.org/2000/svg" width="150" height="150" data-name="Layer 1" viewBox="0 0 367 526"><circle cx="137.5" cy="479.7" r="46" fill="#9fadfd"/><path fill="#9fadfd" d="M132 0A133 133 0 0 0 0 142a34 34 0 0 0 34 34 34 34 0 0 0 34-34v-7a64 64 0 1 1 98 54h1s-49 31-63 73a94 94 0 0 0-4 27l1 63a35 35 0 0 0 34 34 35 35 0 0 0 35-35v-54c0-27 25-52 46-69 24-20 41-46 47-76a87 87 0 0 0 3-19A133 133 0 0 0 132 0z"/><path fill="#3f3d56" d="M44 160a34 34 0 0 1-34-34v-11a132 132 0 0 1 15-60 132 132 0 0 0-25 76v11a34 34 0 0 0 34 34 34 34 0 0 0 32-25 34 34 0 0 1-22 9zm91-89a64 64 0 0 1 55 90A64 64 0 1 0 83 94a64 64 0 0 1 52-23zm10 299a35 35 0 0 1-35-34l-1-63a94 94 0 0 1 4-27 95 95 0 0 1 6-12 110 110 0 0 0-16 28 94 94 0 0 0-4 27l1 63a35 35 0 0 0 35 34 35 35 0 0 0 33-25 35 35 0 0 1-23 9z"/><g transform="translate(0 1)"><path fill="#ffb8b8" d="M307 514h-12l-6-48h18z"/><path fill="#2f2e41" d="M272 525h38v-15h-23a15 15 0 0 0-15 15z"/><path fill="#ffb8b8" d="M351 514h-12l-6-48h18z"/><path fill="#2f2e41" d="M316 525h38v-15h-23a15 15 0 0 0-15 15zm25-26 12-1a5 5 0 0 0 4-4l-14-159-66 18-6-2 20 140a5 5 0 0 0 4 4l13 1a5 5 0 0 0 5-5l-3-84a2 2 0 0 1 4 0l22 88a5 5 0 0 0 5 4z"/><circle cx="-305.4" cy="180.8" r="24.6" fill="#ffb8b8" transform="scale(-1 1)"/><path fill="#ccc" d="m346 253-2 58-1 21a5 5 0 0 1-3 5l-64 23a4 4 0 0 1-1 0 5 5 0 0 1-5-5l3-105a37 37 0 0 1 30-35l2-1a36 36 0 0 1 29 10 37 37 0 0 1 12 29z"/><path fill="#ffb8b8" d="M246 348a10 10 0 0 0 5-15l22-29-19-1-17 27a10 10 0 0 0 9 18z"/><path fill="#ccc" d="M261 328a5 5 0 0 0 3-3l32-77a13 13 0 1 0-23-10l-32 77a5 5 0 0 0 2 6l15 7a5 5 0 0 0 3 0z"/><path fill="#3f3d56" d="m313 325-31-60a5 5 0 0 0-6-2l-45 24a5 5 0 0 0-2 6l31 60a5 5 0 0 0 6 2l45-24a5 5 0 0 0 2-6z"/><path fill="#ffb8b8" d="M293 298a10 10 0 0 1 15-5l30-20v19l-28 16a10 10 0 0 1-17-10z"/><path fill="#ccc" d="m330 302 24-19a17 17 0 0 0 8-28l-22-29a10 10 0 0 0-17 11l18 28-26 13a5 5 0 0 0-2 6l10 17a5 5 0 0 0 3 2h1a5 5 0 0 0 3-1z"/><path fill="#2f2e41" d="M324 197a2 2 0 0 0-2-3 5 5 0 0 0-3 2 14 14 0 0 1-3 3l-4-1v-4a37 37 0 0 0 2-9c0-4 0-8-3-11-2-4-7-5-11-5-5 0-9 2-14 3l-4-1v-5c1-5 2-9 5-13a19 19 0 0 1 12-7 29 29 0 0 1 14 2 36 36 0 0 1 17 12 29 29 0 0 1 6 22 27 27 0 0 1-10 17z"/></g><path fill="#3f3d56" d="M127 515a46 46 0 0 1-17-72 46 46 0 1 0 63 67 46 46 0 0 1-46 5z"/></svg>