<svg data-name="Layer 1" viewBox="0 0 396 467" width="150" height="180" xmlns="http://www.w3.org/2000/svg"><path d="M124 183 11 212a5 5 0 0 1-3-10l114-30a5 5 0 1 1 2 11zm27 12L15 230a5 5 0 0 1-3-10l136-35a5 5 0 0 1 3 10z" fill="#ccc"/><path d="M291 369H33a33 33 0 0 1-33-33V33A33 33 0 0 1 33 0h240l51 41v295a33 33 0 0 1-33 33z" fill="#e6e6e6"/><path d="M33 9a24 24 0 0 0-23 24v303a24 24 0 0 0 23 24h258a24 24 0 0 0 24-24V45l-45-35z" fill="#fff"/><path style="fill:#f37d00;fill-opacity:1;stroke-width:.313805" d="M107 174a1 2 47 0 0-2 3l10 11-10 12a2 1 43 0 0 3 3l10-11 11 11a1 2 47 0 0 3-3l-11-12 11-11a2 1 43 1 0-3-3l-11 11-10-11a1 2 47 0 0-1 0z"/><path d="M241 98H123a5 5 0 0 1 0-11h118a5 5 0 1 1 0 11zm8 17H131a5 5 0 0 1 0-11h118a5 5 0 1 1 0 11z" fill="#9fadfd" style="fill:#ccc;fill-opacity:1"/><path d="M243 170h-82a4 5 0 1 0 0 11h82a4 5 0 0 0 0-11z" fill="#ccc" style="stroke-width:.832053"/><path d="M265 188H164a4 5 0 1 0 0 11h101a4 5 0 0 0 0-11z" fill="#ccc" style="stroke-width:.847657"/><path d="M323 42h-40a11 11 0 0 1-11-11V1a1 1 0 0 1 1 0l50 40a1 1 0 0 1 0 1z" fill="#ccc"/><circle cx="74.4" cy="101.4" r="19.4" fill="#9fadfd" style="fill:#ccc;fill-opacity:1"/><path d="M66 248a19 19 0 0 0-19 20 19 19 0 0 0 19 19 19 19 0 0 0 20-19 19 19 0 0 0-20-20zm49 5a5 5 0 0 0 0 11h118a5 5 0 1 0 0-11zm0 18a5 5 0 0 0 0 11h141a5 5 0 1 0 0-11z" style="fill:#ccc;fill-opacity:1"/><path d="M229 256a6 6 0 0 1-8 2l-70-43a6 6 0 0 1 6-10l70 43a6 6 0 0 1 2 8z" fill="#3f3d56" style="fill:#f37d00;fill-opacity:1"/><path d="M159 213a48 48 0 1 1-16-66 48 48 0 0 1 16 66Zm-71-43a36 36 0 1 0 49-12 36 36 0 0 0-49 12z" fill="#3f3d56" style="fill:#f37d00;fill-opacity:1"/><path style="fill:#ffb6b6;fill-opacity:1;stroke-width:.813131" d="M325 107c-13 0-19 9-19 20 0 10 6 19 19 19s24-8 24-19-11-20-24-20zm-85 131-22 7-1-1a8 8 0 0 0-10 1c-2 2-2 5 1 7 2 2 6 2 8 1l32-7zm127 30v28c-1 2 0 5 3 7 3 1 7 1 9-2 2-2 1-6-2-8h-1l2-20zm-6 137-15 9 32 30 10-6zm-78 12 6 40h12v-40z"/><path d="M329 100c-10 0-22 4-20 8 1 2-6-3-6-1l1 5-4 6c-2 2 5 10 7 10l6-1a7 6 0 0 1 8 8 41 35 0 0 1-3 4v4l6 2 14 1 6-1c10-6 12-16 12-26a18 16 0 0 0-2-6c-1-2-5-6-7-6l-8-4c-1-2-5-3-10-3zm-35 155-13 36-8 84 9 60 23 2v-62l8-40 1 49 51 55 12-16-34-47 8-42c3-2-2-9 2-8 3 0 1-6 1-6l1-7c2-4 4-11 3-12a3 2 0 0 1-1-2c3-13 1-26-5-38l-1-2zm93 181-3 1-13 3-3 7a15 12 0 0 0-4 17h1l31-18zm-102 14-7 5a15 12 0 0 0-14 12h38v-12h-4z" style="fill:#2f2e41;fill-opacity:1"/><path d="m335 150-19 1-9 13-13 3-11 22 7 69s1 4-1 4c-2-1-2 4-2 4l-9 29 82-6-4-30s6 0 2-4c-5-3-7-2-3-7 5-4 5-7 5-7l2-22 3-30a35 29 0 0 0-13-26z" fill="#9fadfd"/><path d="M361 172s27 53 26 74l-9 37h-12l1-34c4-4-15-26-21-42zm-65-6s-34 51-47 66l-10 6v11h23s34-24 33-35c-1-12 1-48 1-48z" fill="#9fadfd"/></svg>